PathFileType	4	(X/Y/Z)	 s10c0101.trc
DataRate	CameraRate	NumFrames	NumMarkers	Units	OrigDataRate	OrigDataStartFrame	OrigNumFrames
200	200	6	49	mm	200	1001	2000
Frame#	Time	racr			lacr			c7			jug			rlel			rdr			llel			ldr			s2			lic			ric			lasi			rasi			rpsi			lpsi			rgt			lgt			rth1			rth2			rth3			rth4			rlfc			rmfc			rsh1			rsh2			rsh3			rsh4			rlmal			rmmal			rcal			rtoe			rmt5			lth1			lth2			lth4			lth3			llfc			lmfc			llmal			lcal			lmt5			lsh1			lsh2			lsh3			lsh4			ltoe			SBIKE			LBIKE			RBIKE			
		X1	Y1	Z1	X2	Y2	Z2	X3	Y3	Z3	X4	Y4	Z4	X5	Y5	Z5	X6	Y6	Z6	X7	Y7	Z7	X8	Y8	Z8	X9	Y9	Z9	X10	Y10	Z10	X11	Y11	Z11	X12	Y12	Z12	X13	Y13	Z13	X14	Y14	Z14	X15	Y15	Z15	X16	Y16	Z16	X17	Y17	Z17	X18	Y18	Z18	X19	Y19	Z19	X20	Y20	Z20	X21	Y21	Z21	X22	Y22	Z22	X23	Y23	Z23	X24	Y24	Z24	X25	Y25	Z25	X26	Y26	Z26	X27	Y27	Z27	X28	Y28	Z28	X29	Y29	Z29	X30	Y30	Z30	X31	Y31	Z31	X32	Y32	Z32	X33	Y33	Z33	X34	Y34	Z34	X35	Y35	Z35	X36	Y36	Z36	X37	Y37	Z37	X38	Y38	Z38	X39	Y39	Z39	X40	Y40	Z40	X41	Y41	Z41	X42	Y42	Z42	X43	Y43	Z43	X44	Y44	Z44	X45	Y45	Z45	X46	Y46	Z46	X47	Y47	Z47	X48	Y48	Z48	X49	Y49	Z49	
1001	5.0050	470.294231	1251.361657	-60.524257	403.788549	1267.294664	-388.496201	397.140348	1324.486598	-212.230609	396.197235	1181.581896	-217.100120	473.754417	1008.901399	70.228930	640.415850	879.917276	-7.443602	461.312907	993.768552	-446.845583	653.538128	885.555698	-369.502012	-98.507838	1091.473367	-179.147956	53.665376	1130.429879	-339.701455	83.234293	1098.875421	-35.366178	92.827597	1044.188672	-304.394301	80.339531	1018.779102	-57.789589	-58.876581	1142.386897	-115.125998	-60.314701	1158.206173	-225.775764	-31.088058	976.470587	-7.996675	-3.890364	1011.219338	-386.390948	39.823764	848.197284	12.871855	102.282387	786.021525	-1.129120	122.730881	703.635025	-14.345300	134.848197	806.382039	-5.252509	182.118214	617.268153	-32.966338	177.126109	606.102397	-147.028039	140.182005	509.308431	-7.632670	159.895130	423.457911	-20.736299	134.820444	341.055566	-28.122983	191.751130	425.892457	-42.786643	126.839716	237.917018	-45.104320	154.757707	256.227373	-122.861713	78.912358	221.764337	-96.612574	319.696911	191.084205	-82.516170	233.406092	165.502904	-25.003093	118.055541	960.814784	-392.883569	202.265259	964.143197	-370.996083	206.619856	994.621808	-350.000490	281.735015	923.284487	-366.055557	382.106949	871.728951	-337.650356	363.358395	842.366937	-215.438162	101.454474	615.213075	-372.887148	41.645445	625.537543	-331.601753	125.330352	467.991694	-390.782150	294.979906	792.058646	-381.492681	251.726076	716.771505	-370.909146	174.951842	671.596975	-378.212278	270.269974	699.726648	-342.777054	198.263619	424.900364	-332.227044	-204.678945	834.862084	-223.062329	-78.297040	81.898996	-423.511744	-102.572664	80.262855	-24.278954	
1002	5.0100	470.826951	1252.360325	-63.337349	402.036685	1268.406573	-390.676951	396.912945	1325.095997	-213.824082	395.838982	1182.753588	-218.807299	475.830703	1010.975307	68.702597	640.762294	880.000654	-7.263646	460.420205	994.000991	-447.128190	653.511531	886.498148	-369.621319	-97.836738	1093.407664	-177.525212	52.642087	1133.346104	-339.077823	84.820792	1100.079213	-34.574818	92.590583	1047.016302	-303.511403	82.123328	1020.418651	-57.667697	-57.897530	1143.720598	-112.241832	-60.141359	1160.263749	-223.215848	-29.967952	977.572466	-7.094790	-3.332445	1016.628215	-385.603456	38.007137	848.480682	13.810724	99.477230	785.121548	-0.198208	118.262017	702.457570	-13.228105	131.300459	804.940174	-5.103163	175.691167	614.940960	-32.400402	170.332352	604.143922	-146.995935	132.789979	507.281973	-7.397250	151.719828	421.234190	-20.582504	125.801020	339.186694	-28.295938	183.942188	423.311532	-41.869010	119.134099	235.849073	-45.327956	147.560878	253.799885	-122.775827	71.234589	220.601298	-97.107795	311.338821	184.820588	-82.783667	224.351879	161.296659	-25.465422	119.459222	967.337262	-393.040189	203.297557	971.899978	-370.239036	206.553014	1001.611784	-347.465680	283.344232	932.269128	-364.669953	385.916169	882.394022	-334.111725	367.251937	853.551558	-212.160602	109.831285	620.249059	-371.319907	50.128354	629.963505	-330.994730	135.297028	473.130662	-389.805150	301.159022	801.816234	-378.588861	259.328952	725.629899	-368.672203	183.514960	679.078353	-376.610882	277.961271	708.874927	-340.426618	208.250451	430.271882	-331.505649	-204.577726	834.889466	-223.081688	-78.284626	81.945404	-423.508285	-102.576243	80.288502	-24.251690	
1003	5.0150	471.145541	1253.304181	-66.086824	400.856909	1269.325656	-392.577739	396.685918	1325.578657	-215.336856	395.657274	1183.664461	-219.836216	477.718415	1012.843053	66.766216	641.071350	879.864412	-7.227254	459.402885	994.109863	-447.553447	653.499709	887.378460	-369.680585	-99.260081	1096.145378	-176.127489	51.732131	1136.026306	-338.181750	86.542090	1101.332921	-34.260902	92.022263	1049.405621	-302.064937	83.486683	1022.229266	-57.905191	-56.335902	1145.010799	-110.119342	-59.945541	1162.588436	-220.640948	-28.602422	978.869787	-6.474642	-2.858952	1021.762374	-385.069199	36.088770	849.057779	14.563116	96.426741	784.496763	0.558002	113.904501	701.665648	-12.404056	128.671023	803.897950	-4.301985	169.696554	613.045473	-31.900388	163.972199	602.871981	-146.966300	125.651142	505.725845	-7.197380	143.671881	419.430657	-20.395967	116.866382	337.681083	-28.625029	176.246286	421.228543	-41.139442	111.174087	234.475132	-45.693385	140.152492	252.206170	-122.908445	63.271498	220.238301	-97.712707	302.589732	179.367714	-83.174422	215.029595	157.732937	-25.895510	120.465649	973.522821	-392.650808	203.943408	978.693170	-368.308826	206.331475	1008.402657	-345.091684	284.540614	940.947257	-363.368254	388.900905	893.254599	-331.668763	370.816635	864.730298	-209.027450	119.152460	625.613945	-370.457846	58.683799	633.595661	-329.306721	145.428786	477.829193	-388.795508	307.054208	811.447463	-375.948571	266.726986	734.288179	-366.578119	191.731119	686.302106	-375.008141	286.116523	718.970372	-339.640656	218.510930	435.478595	-330.801646	-204.593875	834.933423	-223.025345	-78.259229	81.987331	-423.512367	-102.542974	80.297587	-24.211621	
1004	5.0200	471.316844	1254.225393	-68.675554	400.302868	1269.898974	-394.192192	396.522158	1326.004337	-216.801815	395.506027	1184.612621	-221.041414	479.290483	1014.507260	64.482892	641.307257	879.611330	-7.510866	458.517863	994.201077	-447.866586	653.594313	888.808987	-370.299329	-98.163650	1098.066050	-175.115168	51.232088	1138.565558	-337.790863	88.198880	1102.482427	-34.213337	91.345133	1051.617554	-300.377870	84.538759	1023.971573	-58.126800	-55.222971	1146.716042	-107.185620	-59.768084	1164.288842	-219.618897	-28.206400	980.417472	-5.430683	-2.445225	1026.718324	-384.881407	34.288641	849.748627	15.237789	93.498781	784.059820	1.232284	109.932931	701.239552	-11.575539	126.246885	803.213440	-3.296590	164.241722	611.506675	-31.363947	157.525644	602.493043	-147.012176	118.805302	504.527456	-7.138372	135.831893	417.953200	-20.384912	108.043662	336.689095	-29.015454	168.775413	419.557006	-40.617710	102.918110	233.400357	-46.135568	133.313793	251.740029	-123.335534	55.023254	220.485562	-98.316977	293.603634	174.554687	-83.479980	205.491727	154.813510	-26.452236	121.192826	979.503171	-392.209459	204.049432	985.099600	-365.545129	205.742304	1014.744117	-342.647462	285.417412	949.286885	-362.052410	391.372498	903.910103	-329.559335	374.030430	875.780708	-205.964747	127.617400	630.048800	-369.088634	65.832882	636.265613	-328.884904	155.582087	481.916425	-387.853562	312.165277	820.649465	-373.342876	273.316755	742.547537	-364.489384	199.558186	693.268617	-373.241464	292.685779	727.349969	-337.160397	228.861209	440.158514	-329.815885	-204.604825	834.976736	-222.973523	-78.202623	82.106455	-423.483343	-102.619796	80.445317	-24.133532	
1005	5.0250	471.231233	1254.973271	-71.374805	400.464244	1270.302414	-395.527191	396.479137	1326.308321	-218.156093	395.829377	1184.966054	-219.934674	480.544010	1015.912152	61.937597	641.541080	879.362671	-7.703808	457.436827	994.151362	-448.464154	653.479466	889.639609	-370.330077	-97.325950	1100.014804	-174.347525	51.032685	1140.999051	-337.631146	89.795296	1103.523087	-34.350635	90.494115	1053.613127	-298.610175	85.704122	1025.483492	-57.968153	-56.427876	1149.888734	-104.630482	-59.635110	1166.198521	-218.648778	-27.840632	982.169030	-4.669640	-2.188847	1031.461716	-385.033196	32.508636	850.710518	15.697256	91.193897	784.494574	2.372631	106.144036	701.154289	-10.962241	123.977202	802.883779	-2.312241	159.281021	610.304018	-30.756014	153.390468	602.380694	-147.388899	112.396178	503.685434	-7.104163	128.311053	417.129606	-20.419390	99.578272	336.035266	-29.646848	161.669361	418.072224	-40.211245	94.427331	232.867677	-46.836628	125.784956	250.993399	-123.594204	46.608695	220.829227	-99.116859	284.296146	170.496630	-83.795026	195.682743	152.509591	-27.018142	121.540612	985.119546	-391.441076	203.946640	991.483738	-363.791901	204.958003	1020.717649	-340.380209	285.885755	957.197392	-360.629036	392.890513	914.234706	-327.805432	377.100620	886.147418	-203.424224	135.899808	634.225826	-367.511592	73.102304	637.914225	-327.597644	165.746857	485.335588	-386.953685	316.604260	829.589963	-371.096499	279.410374	750.550313	-362.816226	206.349267	699.973927	-371.529126	298.543377	734.927210	-334.272714	239.564254	444.660371	-328.988558	-204.648915	835.007067	-222.903975	-78.196856	82.132069	-423.472352	-102.618875	80.473130	-24.112249	
1006	5.0300	470.448035	1255.435989	-74.716686	401.197718	1270.498844	-396.559117	396.870353	1326.526462	-218.419690	395.392589	1186.403826	-222.805048	481.504912	1017.016507	59.130312	641.923343	879.099500	-7.356013	456.283491	993.994301	-449.146765	653.170150	890.350846	-370.373472	-96.884162	1101.598558	-173.615337	51.068161	1143.358740	-337.684643	91.089668	1104.594073	-34.645220	89.753952	1055.699668	-297.359788	86.473336	1026.648243	-57.854090	-55.284568	1151.876611	-105.051150	-59.293606	1168.585459	-218.137866	-27.892088	983.999311	-3.917217	-2.020596	1035.976573	-385.493668	30.864612	851.804574	16.094158	88.441481	784.999032	3.079511	102.706773	701.371181	-10.392359	121.852140	802.796482	-1.323654	154.766492	609.436338	-30.084758	149.050929	602.929739	-147.500985	106.245169	503.309987	-7.073483	121.271581	416.579445	-20.578891	91.510555	335.923598	-30.475759	154.781157	417.177353	-40.012976	85.549390	232.854050	-47.535419	117.884314	250.687201	-123.828394	37.899158	221.807546	-99.982472	274.625726	167.050630	-84.203574	185.639477	150.774541	-27.601167	121.569482	990.383284	-390.557543	203.526363	997.392058	-361.947977	203.956642	1026.309838	-338.162061	286.009282	964.588112	-359.044736	392.888605	924.118028	-327.008189	379.861485	895.585793	-201.389303	144.217409	637.757521	-366.338885	80.554564	639.060349	-326.704632	176.038139	488.187106	-386.098060	320.217127	837.630467	-368.839520	284.672309	758.137862	-361.182352	212.620593	706.175304	-369.977214	304.112166	742.346561	-332.532466	250.433964	448.676082	-328.342239	-204.661997	835.024626	-222.854164	-78.194276	82.228485	-423.485606	-102.517211	80.396966	-24.141296	
